<?xml version="1.0" encoding="iso-8859-1"?>
<!-- Generator: Adobe Illustrator 19.0.0, SVG Export Plug-In . SVG Version: 6.00 Build 0)  -->
<svg version="1.1" id="Capa_1" xmlns="http://www.w3.org/2000/svg" xmlns:xlink="http://www.w3.org/1999/xlink" x="0px" y="0px"
	 viewBox="0 0 512 512" style="enable-background:new 0 0 512 512;" xml:space="preserve">
<path style="fill:#FEC007;" d="M280.555,360.37L141.683,473.865c-6.701,5.482-15.886-2.724-11.195-9.997l50.854-78.923
	c1.681-2.604-0.187-6.042-3.296-6.042h-20.961c-13.809,0-20.73-16.698-10.964-26.476l33.408-33.397l26.564-26.564h80.109
	l-28.794,26.564l-6.559,6.053c-2.395,2.208-0.835,6.218,2.428,6.218h16.918C285.598,331.301,292.486,350.625,280.555,360.37z"/>
<polygon style="fill:#FF9300;" points="286.202,292.466 257.408,319.03 179.529,319.03 206.093,292.466 "/>
<path style="fill:#716499;" d="M458.559,123.669c0,25.18-10.14,47.986-26.553,64.553c-16.633,16.808-39.703,27.212-65.212,27.212
	c-50.689,0-91.776-41.087-91.776-91.765c0-20.774,6.899-39.923,18.533-55.303c16.753-22.159,43.328-36.473,73.243-36.473
	C417.472,31.893,458.559,72.98,458.559,123.669z"/>
<path style="fill:#503D7F;" d="M432.006,188.221c-16.633,16.808-39.703,27.212-65.212,27.212c-50.689,0-91.776-41.087-91.776-91.765
	c0-20.774,6.899-39.923,18.533-55.303c6.372,8.877,11.59,18.544,15.49,28.739c6.02-1.055,12.128-1.593,18.28-1.593
	C381.153,95.512,425.7,136.061,432.006,188.221z"/>
<path style="fill:#A5B1B2;" d="M503.53,301.563H8.477c-5.182,0-9.21-4.625-8.365-9.725c3.328-20.181,16.854-36.911,35.098-44.761
	c-0.041-0.113-0.082-0.237-0.124-0.35c-1.772-4.842-2.987-9.951-3.564-15.247c-0.268-2.39-0.402-4.811-0.402-7.273
	c0-31.039,21.5-57.031,50.427-63.933c-0.968-5.851-1.473-11.857-1.473-17.987c0-60.966,49.428-110.394,110.404-110.394
	c49.562,0,91.49,32.667,105.449,77.634c0.762,2.452,1.442,4.935,2.029,7.448c2.421-0.845,4.883-1.587,7.397-2.225
	c7.026-1.803,14.381-2.761,21.974-2.761c49.139,0,88.976,39.837,88.976,88.976c0,4.584-0.361,9.076-1.03,13.465
	c-0.391,2.565-0.896,5.079-1.494,7.572c2.493-0.536,5.038-0.968,7.613-1.267c3.163-0.391,6.387-0.587,9.663-0.587
	c41.815,0,76.264,31.523,80.89,72.102C512.513,297.226,508.536,301.563,503.53,301.563z"/>
<g>
	<path style="fill:#728080;" d="M503.523,301.563h-6.371c-6.207-38.802-39.835-68.453-80.373-68.453
		c-5.932,0-11.711,0.659-17.281,1.857c1.637-6.745,2.516-13.787,2.516-21.038c0-49.14-39.835-88.975-88.975-88.975
		c-10.294,0-20.17,1.769-29.365,4.988C272.228,81.175,228.46,44.856,176.19,44.856c-25.081,0-48.206,8.36-66.739,22.455
		c20.159-21.785,48.997-35.418,81.021-35.418c52.271,0,96.038,36.319,107.486,85.085c9.195-3.219,19.071-4.988,29.365-4.988
		c49.14,0,88.975,39.835,88.975,88.975c0,7.251-0.879,14.293-2.516,21.038c5.57-1.197,11.348-1.857,17.281-1.857
		c41.806,0,76.258,31.524,80.879,72.104C512.507,297.227,508.532,301.563,503.523,301.563z"/>
	<path style="fill:#728080;" d="M118.634,261.85c-1.514,1.648-3.595,2.493-5.676,2.493c-1.875,0-3.75-0.68-5.233-2.05
		c-33.295-30.658-65.89-18.595-72.638-15.566c-1.772-4.842-2.987-9.951-3.564-15.247c5.017-1.937,13.454-4.502,23.993-5.027
		c15.617-0.783,39.167,2.823,62.676,24.477C121.323,253.825,121.529,258.708,118.634,261.85z"/>
	<path style="fill:#728080;" d="M301.12,124.022c-0.165,0.072-8.612,3.976-17.997,11.486c-9.375,7.52-19.687,18.657-23.57,33.213
		c-0.927,3.451-4.049,5.738-7.469,5.738c-0.659,0-1.329-0.093-1.999-0.268c-4.121-1.102-6.573-5.336-5.47-9.457
		c9.704-36.303,48.532-54.064,50.18-54.806c0.371-0.165,0.752-0.299,1.133-0.402c0.762,2.452,1.442,4.935,2.029,7.448
		c2.421-0.845,4.883-1.587,7.397-2.225C306.457,118.408,304.705,122.415,301.12,124.022z"/>
	<path style="fill:#728080;" d="M416.253,229.327c-0.124,0.041-6.253,2.184-13.619,6.985c-7.355,4.801-15.947,12.259-20.985,22.921
		c-1.329,2.792-4.1,4.419-6.995,4.419c-1.102,0-2.225-0.237-3.297-0.742c-3.863-1.823-5.511-6.428-3.678-10.281
		c12.939-27.382,42.392-37.529,43.638-37.952c1.319-0.443,2.678-0.505,3.956-0.247c-0.391,2.565-0.896,5.079-1.494,7.572
		c2.493-0.536,5.038-0.968,7.613-1.267C422.012,224.413,419.9,228.091,416.253,229.327z"/>
	<path style="fill:#728080;" d="M333.278,351.923c-1.977,0-3.955-0.754-5.463-2.263c-3.018-3.018-3.018-7.909,0-10.927
		l16.662-16.662c3.018-3.018,7.91-3.018,10.927,0c3.018,3.018,3.018,7.909,0,10.927l-16.662,16.662
		C337.233,351.168,335.255,351.923,333.278,351.923z"/>
	<path style="fill:#728080;" d="M22.852,351.923c-1.977,0-3.955-0.754-5.463-2.263c-3.018-3.018-3.018-7.909,0-10.927l16.662-16.662
		c3.018-3.018,7.91-3.018,10.927,0c3.018,3.018,3.018,7.909,0,10.927L28.316,349.66C26.807,351.168,24.829,351.923,22.852,351.923z"
		/>
	<path style="fill:#728080;" d="M96.293,432.573c-1.977,0-3.955-0.755-5.463-2.263c-3.018-3.017-3.018-7.909,0-10.927l16.662-16.662
		c3.017-3.017,7.909-3.017,10.927,0c3.018,3.017,3.018,7.909,0,10.927l-16.662,16.662C100.247,431.818,98.27,432.573,96.293,432.573
		z"/>
	<path style="fill:#728080;" d="M391.867,351.923c-1.977,0-3.955-0.754-5.463-2.263c-3.018-3.018-3.018-7.909,0-10.927
		l16.662-16.662c3.017-3.017,7.909-3.018,10.927,0s3.018,7.909,0,10.927l-16.662,16.662
		C395.821,351.168,393.844,351.923,391.867,351.923z"/>
	<path style="fill:#728080;" d="M344.677,399.113c-1.977,0-3.955-0.755-5.463-2.263c-3.018-3.017-3.018-7.909,0-10.927
		l16.662-16.662c3.017-3.017,7.909-3.017,10.927,0s3.018,7.909,0,10.927L350.14,396.85
		C348.632,398.358,346.655,399.113,344.677,399.113z"/>
	<path style="fill:#728080;" d="M326.884,480.107c-1.977,0-3.955-0.755-5.463-2.263c-3.018-3.017-3.018-7.909,0-10.927
		L466.268,322.07c3.017-3.017,7.909-3.017,10.927,0s3.018,7.909,0,10.927L332.348,477.844
		C330.839,479.353,328.862,480.107,326.884,480.107z"/>
	<path style="fill:#728080;" d="M9.104,442.626c-1.977,0-3.955-0.755-5.463-2.263c-3.018-3.017-3.018-7.909,0-10.927
		l107.365-107.365c3.017-3.017,7.909-3.017,10.927,0c3.018,3.017,3.018,7.909,0,10.927L14.567,440.362
		C13.059,441.871,11.082,442.626,9.104,442.626z"/>
	<path style="fill:#728080;" d="M416.07,271.337c-4.267,0-7.726-3.459-7.726-7.726v-0.906c0-4.267,3.459-7.726,7.726-7.726
		s7.726,3.459,7.726,7.726v0.906C423.796,267.878,420.337,271.337,416.07,271.337z"/>
	<path style="fill:#728080;" d="M373.426,205.337c-4.267,0-7.726-3.459-7.726-7.726v-0.906c0-4.267,3.459-7.726,7.726-7.726
		s7.726,3.459,7.726,7.726v0.906C381.152,201.878,377.693,205.337,373.426,205.337z"/>
</g>
<g>
</g>
<g>
</g>
<g>
</g>
<g>
</g>
<g>
</g>
<g>
</g>
<g>
</g>
<g>
</g>
<g>
</g>
<g>
</g>
<g>
</g>
<g>
</g>
<g>
</g>
<g>
</g>
<g>
</g>
</svg>
